#!OML:ASF E:\VariousWalksJay\Project 1\Capture day 1\Session 1\Actor2.ASF
:FULLY-SPECIFIED
:DEGREES
752
root 4.43876 14.2808 15.8432 3.58985 -36.7819 -3.78507
lowerback 25.3682 -1.33544 3.96198
upperback 16.3842 -1.62447 -2.17256
thorax 4.08357 -0.646477 -4.2937
lowerneck 6.6186 -0.146058 1.24369
upperneck -16.9479 0.946592 6.45847
head -6.25914 -0.177922 1.78377
rclavicle 3.49861e-014 -3.97569e-015
rhumerus -38.664 23.3135 -85.0727
rradius 61.2903
rwrist 4.87227
rhand -13.8372 -10.2554
rfingers 7.12502
rthumb 12.2861 -39.8744
lclavicle 3.49861e-014 -3.97569e-015
lhumerus 27.1862 -19.7846 58.3957
lradius 73.9366
lwrist 83.0065
lhand -36.2284 7.72595
lfingers 7.12502
lthumb -9.33019 37.4995
rfemur -82.5866 -0.105399 20.7682
rtibia 115.819
rfoot -20.7336 -4.25874
rtoes -29.2011
lfemur -47.4146 4.99782 -25.1601
ltibia 79.1843
lfoot -31.2072 6.59803
ltoes -2.1351
753
root 4.40659 14.2497 15.9292 3.28757 -36.7879 -3.69626
lowerback 25.5402 -1.36987 3.96706
upperback 16.4472 -1.66802 -2.23015
thorax 4.07236 -0.665919 -4.34975
lowerneck 6.6276 -0.152677 1.26437
upperneck -16.9065 0.936138 6.44502
head -6.24728 -0.182011 1.77634
rclavicle -1.27222e-014 1.82882e-014
rhumerus -38.7485 23.242 -85.3156
rradius 61.2921
rwrist 4.84902
rhand -13.9712 -10.2134
rfingers 7.12502
rthumb 12.1568 -39.8402
lclavicle -1.27222e-014 1.82882e-014
lhumerus 27.2923 -19.785 58.4141
lradius 73.7819
lwrist 83.0498
lhand -36.2726 7.63216
lfingers 7.12502
lthumb -9.37286 37.4038
rfemur -83.5693 0.465443 20.8688
rtibia 113.842
rfoot -21.0917 -4.68086
rtoes -29.4447
lfemur -46.9874 5.25202 -25.3423
ltibia 79.6679
lfoot -31.6547 6.44094
ltoes -2.53124
754
root 4.37441 14.2243 16.0141 3.02228 -36.783 -3.60615
lowerback 25.6719 -1.42312 3.93524
upperback 16.4872 -1.74183 -2.27139
thorax 4.04975 -0.704744 -4.35993
lowerneck 6.6695 -0.133954 1.19522
upperneck -16.8618 0.952047 6.4415
head -6.24073 -0.168521 1.78514
rclavicle -1.03368e-014 1.27222e-014
rhumerus -38.857 23.3104 -85.5582
rradius 61.3213
rwrist 4.80615
rhand -14.1064 -10.1742
rfingers 7.12502
rthumb 12.0266 -39.8086
lclavicle -1.03368e-014 1.27222e-014
lhumerus 27.3027 -19.7276 58.4894
lradius 73.628
lwrist 83.0671
lhand -36.3199 7.55081
lfingers 7.12502
lthumb -9.41852 37.3204
rfemur -84.3497 1.00535 20.9409
rtibia 111.662
rfoot -21.4311 -5.08049
rtoes -29.6517
lfemur -46.5696 5.46966 -25.5174
ltibia 80.0854
lfoot -32.0428 6.31172
ltoes -2.96578
755
root 4.34229 14.2042 16.0976 2.79704 -36.7739 -3.51476
lowerback 25.7622 -1.48162 3.87824
upperback 16.5101 -1.82695 -2.3026
thorax 4.02527 -0.751785 -4.34216
lowerneck 6.72823 -0.102526 1.07769
upperneck -16.8216 0.981445 6.44606
head -6.23895 -0.146368 1.80369
rclavicle -1.11319e-013 3.02153e-014
rhumerus -38.9741 23.4592 -85.7984
rradius 61.3656
rwrist 4.75997
rhand -14.2267 -10.1361
rfingers 7.12502
rthumb 11.9105 -39.7773
lclavicle -1.11319e-013 3.02153e-014
lhumerus 27.2609 -19.6404 58.5986
lradius 73.4786
lwrist 83.0679
lhand -36.3662 7.48618
lfingers 7.12502
lthumb -9.46312 37.2537
rfemur -84.9358 1.51235 20.9946
rtibia 109.288
rfoot -21.7528 -5.46516
rtoes -29.8134
lfemur -46.1697 5.65549 -25.6862
ltibia 80.4428
lfoot -32.3737 6.20388
ltoes -3.43702
756
root 4.31029 14.1893 16.1798 2.61443 -36.7668 -3.42977
lowerback 25.8155 -1.546 3.79673
upperback 16.5155 -1.92406 -2.32239
thorax 3.99623 -0.807554 -4.2951
lowerneck 6.80995 -0.054385 0.901684
upperneck -16.789 1.02956 6.46341
head -6.24427 -0.112937 1.83483
rclavicle 3.18055e-014 6.36111e-015
rhumerus -39.0969 23.696 -86.0309
rradius 61.4211
rwrist 4.70896
rhand -14.2943 -10.13
rfingers 7.12502
rthumb 11.8453 -39.7749
lclavicle 3.18055e-014 6.36111e-015
lhumerus 27.16 -19.5294 58.7364
lradius 73.3388
lwrist 83.0335
lhand -36.4204 7.43681
lfingers 7.12502
lthumb -9.51542 37.202
rfemur -85.3253 1.98888 21.0443
rtibia 106.728
rfoot -22.0627 -5.84743
rtoes -29.9242
lfemur -45.7874 5.81737 -25.8416
ltibia 80.7454
lfoot -32.6509 6.11554
ltoes -3.96575
757
root 4.27843 14.1793 16.2605 2.47199 -36.7738 -3.35456
lowerback 25.8375 -1.61196 3.68966
upperback 16.506 -2.02818 -2.33262
thorax 3.96408 -0.86956 -4.22134
lowerneck 6.90415 0.010993 0.680005
upperneck -16.76 1.09737 6.49036
head -6.25365 -0.0680614 1.87525
rclavicle 4.21423e-014 -3.26007e-014
rhumerus -39.2201 24.0126 -86.2538
rradius 61.4845
rwrist 4.64968
rhand -14.3491 -10.118
rfingers 7.12502
rthumb 11.7924 -39.766
lclavicle 4.21423e-014 -3.26007e-014
lhumerus 27.0041 -19.3838 58.8988
lradius 73.2138
lwrist 82.9854
lhand -36.462 7.44005
lfingers 7.12502
lthumb -9.55554 37.2034
rfemur -85.5177 2.44519 21.1015
rtibia 103.988
rfoot -22.363 -6.25012
rtoes -30.0156
lfemur -45.4199 5.96915 -25.9784
ltibia 80.9974
lfoot -32.8763 6.0372
ltoes -4.5525
758
root 4.24668 14.1743 16.3399 2.35855 -36.8004 -3.28045
lowerback 25.8364 -1.66934 3.56045
upperback 16.4854 -2.12587 -2.34006
thorax 3.93083 -0.930233 -4.13336
lowerneck 7.00794 0.0854326 0.438644
upperneck -16.7413 1.17761 6.53042
head -6.26873 -0.0174418 1.92234
rclavicle -5.08889e-014 3.81667e-014
rhumerus -39.339 24.3594 -86.4661
rradius 61.5512
rwrist 4.58884
rhand -14.373 -10.0971
rfingers 7.12502
rthumb 11.7694 -39.7464
lclavicle -5.08889e-014 3.81667e-014
lhumerus 26.8207 -19.2289 59.0669
lradius 73.1061
lwrist 82.9343
lhand -36.4863 7.4728
lfingers 7.12502
lthumb -9.57904 37.235
rfemur -85.5134 2.88015 21.1672
rtibia 101.075
rfoot -22.66 -6.67595
rtoes -30.0677
lfemur -45.06 6.11574 -26.103
ltibia 81.2007
lfoot -33.0558 5.95934
ltoes -5.18904
